:SAMPLES-PER-SECOND 30
:FULLY-SPECIFIED
:DEGREES
583
root  10.8805 38.9158 -2.19661 154.611 -81.7917 -161.004
RightUpLeg  -2.82715 -9.8219 0.664087
RightLeg  19.7477 -4.122 -0.171431
RightFoot  -9.54524 -0.0243378 -2.54097
RightToes  5.82063e-011 0 -3.6325e-017
Spine  7.57644 -1.414 13.2508
Spine1  13.5755 1.05552 -2.64386
HEad  -3.94095 3.20666 -4.13103
LeftShoulder1  0.306485 2.65142 -29.8493
LeftArm  -11.0417 7.78272 -38.9153
LeftForeArm  47.3734 -77.3158 -55.1798
LeftHand  0.151383 0.708338 -3.89388
RightShoulder  -0.469049 -4.90199 26.6777
RightArm  -11.7068 -15.3535 35.1896
RightForeArm  116.774 74.0046 137.195
RightHand  -0.1646 -1.68619 -4.95441
LeftUpLeg  -15.7912 -0.892942 3.00782
LeftLeg  57.9553 -3.05675 -4.71683
LeftFoot  0.993354 0.319076 -3.00104
LeftToes  2.58842e-009 -1.78069e-010 3.24654e-012
584
root  9.60875 39.0454 -2.59918 157.747 -83.1841 -163.839
RightUpLeg  0.15695 -10.2657 -0.576364
RightLeg  17.9668 -4.65977 0.448096
RightFoot  -11.0755 -0.069702 -2.37767
RightToes  5.82063e-011 0 -3.6325e-017
Spine  6.60693 -1.16895 12.0905
Spine1  13.3583 1.00886 -2.74069
HEad  -3.51674 3.0932 -4.94738
LeftShoulder1  0.199972 2.95121 -30.0702
LeftArm  -11.3587 8.20819 -38.2377
LeftForeArm  49.395 -77.6608 -57.8604
LeftHand  0.137378 1.02103 -3.84962
RightShoulder  -0.44631 -4.83872 26.5342
RightArm  -11.0402 -15.3875 35.7542
RightForeArm  116.063 73.8926 137.389
RightHand  -0.186571 -1.91376 -5.99686
LeftUpLeg  -18.1296 -0.633604 1.45476
LeftLeg  51.1088 -4.36028 -5.35403
LeftFoot  -0.328873 0.230383 -2.37574
LeftToes  2.58842e-009 -1.78069e-010 3.24654e-012
585
root  8.4 39.1286 -3.03967 158.844 -83.4736 -165.008
RightUpLeg  3.62496 -9.78411 -0.590599
RightLeg  15.5156 -5.34684 0.490352
RightFoot  -12.0837 -0.0950354 -2.16359
RightToes  5.82063e-011 0 -3.6325e-017
Spine  6.50178 -0.576792 11.6987
Spine1  13.099 1.58755 -3.40373
HEad  -3.56216 2.52874 -5.46173
LeftShoulder1  0.226867 2.87265 -29.8296
LeftArm  -11.7696 8.28599 -37.9519
LeftForeArm  49.4524 -77.6869 -58.1683
LeftHand  0.148221 0.929521 -4.04331
RightShoulder  -0.46597 -4.89417 26.6395
RightArm  -10.9979 -15.109 36.1472
RightForeArm  116.977 73.8984 137.532
RightHand  -0.165854 -1.72378 -4.98631
LeftUpLeg  -19.0107 0.962857 0.756966
LeftLeg  42.1243 -5.47411 -4.89801
LeftFoot  -1.03106 0.235291 -2.54617
LeftToes  2.58842e-009 -1.78069e-010 3.24654e-012
586
root  7.15483 39.1745 -3.40784 162.356 -84.2731 -167.93
RightUpLeg  6.35822 -9.90472 -1.07198
RightLeg  13.2436 -5.73355 0.70517
RightFoot  -13.2006 -0.115447 -1.58646
RightToes  5.82063e-011 0 -3.6325e-017
Spine  5.44615 -0.223417 11.0302
Spine1  13.1271 1.81933 -4.11682
HEad  -3.59271 2.25395 -5.76177
LeftShoulder1  0.190468 2.97672 -30.0133
LeftArm  -12.1952 8.35004 -37.4416
LeftForeArm  50.4158 -77.7823 -58.7597
LeftHand  0.160541 0.893647 -4.32558
RightShoulder  -0.407112 -4.71725 26.5867
RightArm  -11.0755 -14.9695 36.8831
RightForeArm  118.038 73.8876 137.747
RightHand  -0.113784 -2.5435 -4.19746
LeftUpLeg  -19.4404 2.08934 -0.538308
LeftLeg  30.7358 -6.3448 -3.721
LeftFoot  -1.44588 0.275196 -3.07772
LeftToes  2.58842e-009 -1.78069e-010 3.24654e-012
587
root  5.93087 39.1966 -3.77445 165.72 -84.5984 -171.101
RightUpLeg  9.65753 -9.43425 -1.08206
RightLeg  10.3698 -6.40909 0.582664
RightFoot  -13.8 -0.118992 -1.19882
RightToes  5.82063e-011 0 -3.6325e-017
Spine  5.18022 0.269258 10.3655
Spine1  13.0975 2.33776 -4.94071
HEad  -3.86407 1.90317 -6.52474
LeftShoulder1  0.213174 2.913 -29.966
LeftArm  -12.4815 8.42741 -37.182
LeftForeArm  50.7543 -77.8495 -59.4499
LeftHand  0.162415 0.69731 -4.15448
RightShoulder  -0.428389 -4.77474 26.7772
RightArm  -11.1835 -14.6211 37.3762
RightForeArm  118.798 73.9991 137.568
RightHand  -0.112333 -2.69528 -4.311
LeftUpLeg  -18.3174 2.91174 -1.6055
LeftLeg  17.2848 -5.64165 -1.84688
LeftFoot  -1.17631 0.261604 -2.85229
LeftToes  2.58842e-009 -1.78069e-010 3.24654e-012
588
root  4.68158 39.1577 -4.09176 167.125 -84.723 -172.261
RightUpLeg  12.897 -8.9798 -0.991017
RightLeg  7.56386 -6.96039 0.73134
RightFoot  -14.4446 -0.113731 -0.576142
RightToes  5.82063e-011 0 -3.6325e-017
Spine  4.58047 0.685928 9.70259
Spine1  13.6955 2.78579 -5.55401
HEad  -3.88709 1.66573 -7.39863
LeftShoulder1  0.205515 2.93145 -29.7883
LeftArm  -13.0632 8.7604 -37.2803
LeftForeArm  51.983 -78.02 -61.0726
LeftHand  0.140699 1.11224 -4.04044
RightShoulder  -0.412188 -4.73156 26.6205
RightArm  -11.2847 -14.0716 38.1486
RightForeArm  118.569 74.2249 136.875
RightHand  -0.108695 -2.57416 -3.9942
LeftUpLeg  -16.7698 2.042 -1.69556
LeftLeg  4.01067 -2.78616 -0.930378
LeftFoot  -0.83209 0.340336 -3.62782
LeftToes  2.58842e-009 -1.78069e-010 3.24654e-012
589
root  3.34367 38.9705 -4.37859 164.938 -84.7114 -169.972
RightUpLeg  15.969 -8.69705 -0.775811
RightLeg  5.82687 -7.11671 0.954453
RightFoot  -15.6231 -0.102574 0.0605493
RightToes  5.82063e-011 0 -3.6325e-017
Spine  4.02798 0.986149 9.09882
Spine1  14.2364 3.06987 -5.74526
HEad  -3.76869 1.13988 -7.79478
LeftShoulder1  0.163947 3.04657 -29.7448
LeftArm  -13.4944 9.18523 -37.0376
LeftForeArm  54.304 -78.2612 -63.2857
LeftHand  0.149737 1.05847 -4.22375
RightShoulder  -0.391943 -4.66315 26.8067
RightArm  -10.814 -13.3476 38.2661
RightForeArm  116.632 74.6305 135.297
RightHand  -0.123967 -2.16776 -4.11847
LeftUpLeg  -16.058 1.37516 -1.52545
LeftLeg  -4.81086 0.354895 -0.985591
LeftFoot  -2.3029 0.35956 -4.53146
LeftToes  2.58842e-009 -1.78069e-010 3.24654e-012
590
root  1.91748 38.5867 -4.63084 159.901 -84.7946 -165.635
RightUpLeg  19.1432 -8.84232 -0.817303
RightLeg  6.25904 -6.70293 1.04036
RightFoot  -17.948 -0.0541264 1.14836
RightToes  5.82063e-011 0 -3.6325e-017
Spine  4.62637 1.18054 8.61941
Spine1  14.1647 3.24696 -5.58249
HEad  -3.77194 0.538874 -8.19694
LeftShoulder1  0.180696 2.99561 -29.4259
LeftArm  -13.7888 9.65333 -36.9608
LeftForeArm  56.9862 -78.5152 -65.9793
LeftHand  0.132885 1.20226 -3.92256
RightShoulder  -0.411889 -4.71576 27.0213
RightArm  -10.5604 -12.9072 38.3533
RightForeArm  116.329 74.7965 134.712
RightHand  -0.11941 -2.24134 -4.03114
LeftUpLeg  -16.264 1.74392 -1.47548
LeftLeg  -5.3606 2.21562 -1.44679
LeftFoot  -4.51851 0.42729 -6.55364
LeftToes  2.58842e-009 -1.78069e-010 3.24654e-012
591
root  0.443431 38.2127 -4.92196 162.966 -84.5434 -170.832
RightUpLeg  23.7061 -9.21689 -2.15186
RightLeg  7.23799 -5.2655 0.770406
RightFoot  -20.1448 0.0696729 2.6937
RightToes  5.82063e-011 0 -3.6325e-017
Spine  7.15724 1.68009 6.80146
Spine1  13.7161 3.69722 -4.84494
HEad  -3.13044 -0.874331 -8.20083
LeftShoulder1  0.151529 3.07601 -29.2962
LeftArm  -13.644 9.51039 -36.7995
LeftForeArm  58.6437 -78.6434 -67.314
LeftHand  0.131918 1.20196 -3.8944
RightShoulder  -0.395359 -4.67064 26.8857
RightArm  -10.5757 -13.2536 38.5882
RightForeArm  116.399 74.7835 134.766
RightHand  -0.110805 -2.43769 -3.92753
LeftUpLeg  -15.5349 2.47687 -1.98191
LeftLeg  -0.268875 4.767 -1.97276
LeftFoot  -2.06084 0.184374 -2.38798
LeftToes  2.58842e-009 -1.78069e-010 3.24654e-012
592
root  -1.21492 37.9285 -5.14914 177.133 -83.9144 173.927
RightUpLeg  27.1856 -9.93523 -5.3016
RightLeg  8.41596 -2.45711 0.500424
RightFoot  -21.4513 0.308344 5.09689
RightToes  5.82063e-011 0 -3.6325e-017
Spine  6.91445 2.75616 4.12252
Spine1  14.9367 4.74387 -4.66291
HEad  -2.02954 -2.32342 -7.95257
LeftShoulder1  0.136474 3.1147 -29.0156
LeftArm  -13.2518 9.41282 -36.5642
LeftForeArm  59.8813 -78.7372 -68.4617
LeftHand  0.139489 1.21943 -4.11907
RightShoulder  -0.452147 -4.82668 27.2802
RightArm  -10.4705 -14.042 38.2323
RightForeArm  116.604 74.6827 135.127
RightHand  -0.119221 -2.12188 -3.88698
LeftUpLeg  -16.3097 3.02058 -3.87576
LeftLeg  6.68694 6.4893 -1.48484
LeftFoot  3.86027 -0.635555 4.41973
LeftToes  2.58842e-009 -1.78069e-010 3.24654e-012
